# xmcd
#
# Track frame offsets: 
#        150
#        15617
#        27990
#        43845
#        53294
#        66200
#        79870
#        93560
#        105581
#        117367
#        128660
#        141853
#        150544
#        159732
#
# Disc length: 2276 seconds
#
# Revision: 0
# Processed by: cddbd v1.5.2PL0 Copyright (c) Steve Scherf et al.
# Submitted via: ExactAudioCopy v0.99pb4
#
DISCID=b108e20e
DTITLE=Ben E.king and The Drifters - The Collection
DYEAR=2006
DGENRE=Soul
TTITLE0=If Loving Is Wrong - I Don't Want To Be Right
TTITLE1=Sittin On The Dock Of The Bay
TTITLE2=Kissing In The Back Row Of The Movies
TTITLE3=When My Little Girl Is Smiling
TTITLE4=Lonely Winds
TTITLE5=Balls Of St. Mary's
TTITLE6=Money Honey
TTITLE7=If You Cry True Love True Love
TTITLE8=I'll Take You Home
TTITLE9=I Do Believe Im Falling In Love
TTITLE10=Fools Fall In Love
TTITLE11=Saturday Night At The Movies
TTITLE12=I Count The Tears
TTITLE13=Honey Love
EXTD=
EXTT0=
EXTT1=
EXTT2=
EXTT3=
EXTT4=
EXTT5=
EXTT6=
EXTT7=
EXTT8=
EXTT9=
EXTT10=
EXTT11=
EXTT12=
EXTT13=
PLAYORDER=
